<?xml version="1.0" encoding="iso-8859-1"?>
<!-- Generator: Adobe Illustrator 19.0.0, SVG Export Plug-In . SVG Version: 6.00 Build 0)  -->
<svg version="1.1" id="Capa_1" xmlns="http://www.w3.org/2000/svg" xmlns:xlink="http://www.w3.org/1999/xlink" x="0px" y="0px"
	 viewBox="0 0 512 512" style="enable-background:new 0 0 512 512;" xml:space="preserve">
<path style="fill:#82C11F;" d="M462.038,403.85c-3.391,17.174-15.069,32.362-32.482,39.473c-0.189,0.07-0.389,0.14-0.589,0.219
	c-7.55,17.672-21.791,32.502-40.999,40.331c-18.331,7.48-37.888,7.24-55.071,0.818c-9.913-3.71-19.039-9.484-26.688-17.024
	c-7.081-6.981-12.895-15.488-16.884-25.272c-15.797-38.705,2.782-82.876,41.488-98.653c0.907-0.369,1.815-0.718,2.733-1.047
	c18.4-6.712,37.858-5.804,54.782,1.197c0.19-0.09,0.379-0.17,0.569-0.249c8.517-3.471,17.413-4.608,25.96-3.7
	c8.926,0.948,17.483,4.129,24.853,9.185c13.753-2.493,27.855,4.867,33.34,18.32C478.544,380.912,473.617,396.022,462.038,403.85z"/>
<g>
	<path style="fill:#679B04;" d="M333.546,342.696v136.83c0,1.785-0.229,3.511-0.648,5.166c-9.913-3.71-19.039-9.484-26.688-17.024
		c-7.081-6.981-12.895-15.488-16.884-25.272c-15.797-38.705,2.782-82.876,41.488-98.653
		C331.72,343.374,332.628,343.025,333.546,342.696z"/>
	<path style="fill:#679B04;" d="M373.721,442.249c-12.015,12.106-27.173,20.337-43.837,23.791
		c-7.853,1.642-15.814,2.178-23.676,1.63c-7.082-6.982-12.897-15.486-16.883-25.276c-15.793-38.699,2.784-82.872,41.488-98.652
		c19.197-7.831,39.75-7.204,57.517,0.149c0.187-0.084,0.373-0.168,0.569-0.247c8.515-3.473,17.411-4.611,25.954-3.702
		c0.824,16.77-4.891,33.213-16.111,45.924C397.623,407.152,388.831,427.03,373.721,442.249z"/>
</g>
<path style="fill:#BADB47;" d="M402.798,331.895c3.6,17.134-1.197,35.674-14.451,49.028c-0.15,0.15-0.299,0.279-0.459,0.439
	c-0.03,19.218-7.33,38.436-21.951,53.156c-9.335,9.405-20.514,15.837-32.392,19.318c-1.945,0.568-3.909,1.057-5.884,1.466
	c-24.025,4.987-50.015-1.795-68.734-20.365c-15.299-15.179-22.758-35.265-22.36-55.231c0.309-15.558,5.385-31.046,15.239-44.071
	c2.034-2.693,4.268-5.276,6.712-7.729c14.601-14.71,33.759-22.17,52.987-22.35c0.14-0.159,0.279-0.319,0.429-0.459
	c6.263-6.303,13.693-10.741,21.612-13.284c1.416-0.469,2.852-0.858,4.288-1.197c7.55-1.765,15.408-1.885,23.018-0.349
	c11.679-7.679,27.526-6.423,37.838,3.82C409.002,304.319,410.388,320.157,402.798,331.895z"/>
<path style="fill:#82C11F;" d="M333.546,291.813v162.022c-1.945,0.568-3.909,1.057-5.884,1.466
	c-24.025,4.987-50.015-1.795-68.734-20.365c-15.299-15.179-22.758-35.265-22.36-55.231c0.309-15.558,5.385-31.046,15.239-44.071
	c2.034-2.693,4.268-5.276,6.712-7.729c14.601-14.71,33.759-22.17,52.987-22.35c0.14-0.159,0.279-0.319,0.429-0.459
	C318.197,298.794,325.627,294.356,333.546,291.813z"/>
<path style="fill:#E3F4FF;" d="M322.577,229.45v250.074c0,5.515-4.468,9.973-9.973,9.973h-185.24c-5.505,0-9.973-4.458-9.973-9.973
	V229.45c0-32.233,8.766-63.857,25.341-91.503l1.057-1.765c5.356-8.936,9.893-18.271,13.583-27.925
	c2.025-5.286,3.79-10.661,5.296-16.106c4.258-15.388,6.453-31.355,6.453-47.472h101.725c0,21.821,4.009,43.363,11.748,63.578
	c3.69,9.654,8.228,18.989,13.583,27.925l1.057,1.765C313.811,165.593,322.577,197.217,322.577,229.45z"/>
<path style="fill:#FFEEE1;" d="M322.574,229.45v250.074c0,5.515-4.468,9.973-9.973,9.973h-185.24c-5.505,0-9.973-4.458-9.973-9.973
	V229.45c0-32.233,8.766-63.857,25.341-91.503l1.057-1.765c5.356-8.936,9.893-18.271,13.583-27.925h125.222
	c3.69,9.654,8.228,18.989,13.583,27.925l1.057,1.765C313.807,165.593,322.574,197.217,322.574,229.45z"/>
<g>
	<path style="fill:#FEDFC5;" d="M184.966,346.554L164.94,489.497h-37.578c-5.505,0-9.973-4.458-9.973-9.973V322.708h46.823
		c6.064,0,11.828,2.623,15.807,7.201C183.998,334.486,185.803,340.55,184.966,346.554z"/>
	<path style="fill:#FEDFC5;" d="M322.577,229.45v250.074c0,5.515-4.468,9.973-9.973,9.973H163.716
		c143.502-106.083,113.872-315.777,100.429-381.24h18.45c3.69,9.654,8.228,18.989,13.583,27.925l1.057,1.765
		C313.811,165.593,322.577,197.217,322.577,229.45z"/>
</g>
<path style="fill:#64BDFF;" d="M283.423,56.65H156.546c-5.508,0-9.973-4.465-9.973-9.973V21.445c0-7.702,6.243-13.945,13.945-13.945
	h118.933c7.702,0,13.945,6.243,13.945,13.945v25.232C293.396,52.185,288.931,56.65,283.423,56.65z"/>
<path style="fill:#E3F4FF;" d="M36.834,345.038l7.051,50.314L57.976,495.91c0.688,4.927,4.907,8.587,9.873,8.587h75.227
	c4.977,0,9.185-3.66,9.883-8.587l14.082-100.558l7.051-50.314c0.848-5.994-3.81-11.359-9.873-11.359H46.717
	C40.653,333.679,35.996,339.044,36.834,345.038z"/>
<path style="fill:#FFEEE1;" d="M43.884,395.352L57.976,495.91c0.688,4.927,4.907,8.587,9.873,8.587h75.227
	c4.977,0,9.185-3.66,9.883-8.587l14.082-100.558H43.884z"/>
<path d="M479.993,364.615c-6.299-15.44-22.177-24.861-38.525-23.293c-9.112-5.617-19.59-8.759-30.235-9.127
	c7.047-14.32,4.287-31.979-7.257-43.433c-11.836-11.744-30.121-14.212-44.565-6.367c-9.926-1.514-19.978-0.573-29.337,2.665v-55.607
	c0-13.446-1.499-26.997-4.454-40.277c-0.9-4.042-4.901-6.593-8.951-5.691c-4.043,0.9-6.591,4.907-5.691,8.951
	c2.719,12.211,4.097,24.666,4.097,37.018V479.53c0,1.363-1.109,2.473-2.474,2.473h-150.12l19.046-135.922
	c0.702-5.011-0.8-10.073-4.119-13.892c-3.32-3.817-8.126-6.007-13.186-6.007h-39.324v-75.093c0-4.143-3.357-7.5-7.5-7.5
	s-7.5,3.357-7.5,7.5v75.093H46.712c-5.059,0-9.864,2.189-13.185,6.007c-3.319,3.817-4.821,8.881-4.119,13.892l12.313,87.872
	c0.574,4.103,4.357,6.951,8.469,6.387c4.102-0.575,6.961-4.366,6.387-8.469l-4.066-29.019h105.912l-12.894,92.019
	c-0.17,1.214-1.223,2.13-2.448,2.13H67.853c-1.226,0-2.278-0.915-2.448-2.13l-4.039-28.822c-0.575-4.102-4.374-6.959-8.469-6.387
	c-4.102,0.575-6.961,4.366-6.387,8.469l4.039,28.821C51.75,505.53,59.189,512,67.853,512h75.228c8.645,0,16.069-6.444,17.294-14.998
	h152.224c5.63,0,10.632-2.688,13.83-6.835c10.507,4.543,21.705,6.839,32.94,6.839c10.635,0,21.302-2.052,31.434-6.185
	c19.444-7.931,34.895-22.604,43.798-41.509c17.111-7.768,29.636-22.855,34.151-41.104
	C481.546,397.887,486.291,380.054,479.993,364.615z M50.409,387.852l-6.145-43.854c-0.137-0.971,0.307-1.648,0.583-1.967
	c0.276-0.317,0.886-0.85,1.865-0.85H164.22c0.98,0,1.59,0.533,1.866,0.851s0.72,0.995,0.583,1.966l-6.145,43.854H50.409z
	 M359.367,297.617c1.935,0.391,3.952,0.001,5.604-1.084c8.903-5.852,20.863-4.643,28.438,2.876
	c7.575,7.517,8.877,19.467,3.094,28.414c-1.073,1.661-1.447,3.678-1.041,5.613c3.222,15.333-1.428,31.11-12.402,42.17l-0.084,0.079
	c-0.117,0.11-0.233,0.221-0.349,0.334c-1.424,1.405-2.228,3.322-2.231,5.324c-0.033,18.064-7.057,35.072-19.777,47.891
	c-8.549,8.615-19.005,14.674-30.546,17.781v-75.55l24.66-24.852c2.917-2.94,2.898-7.689-0.041-10.607
	c-2.94-2.917-7.688-2.898-10.607,0.041l-14.012,14.121v-48.921C339.123,296.895,349.378,295.595,359.367,297.617z M457.834,397.643
	c-1.637,1.108-2.771,2.819-3.153,4.759c-3.033,15.37-13.484,28.071-27.918,33.959l-0.1,0.037c-0.153,0.056-0.307,0.113-0.459,0.174
	c-1.857,0.737-3.344,2.186-4.129,4.023c-7.098,16.612-20.216,29.518-36.938,36.338c-17.862,7.287-37.741,6.668-55.064-1.587v-12.899
	c15.639-3.411,29.806-11.171,41.192-22.646c9.289-9.36,16.084-20.552,20.055-32.753l20.723-8.454
	c3.835-1.564,5.676-5.942,4.111-9.777s-5.939-5.675-9.777-4.111l-11.389,4.646c0.156-1.62,0.283-3.247,0.346-4.885
	c9.521-10.37,15.065-23.516,15.993-37.264c8.579,0.402,16.999,3.207,24.148,8.112c1.631,1.118,3.641,1.546,5.582,1.195
	c10.485-1.912,21.016,3.89,25.047,13.771S466.658,391.67,457.834,397.643z"/>
<path d="M117.317,224.393c0.181,0.013,0.359,0.019,0.537,0.019c3.901,0,7.194-3.02,7.474-6.972
	c1.881-26.614,10.123-52.767,23.836-75.632l1.058-1.765c4.665-7.779,8.746-15.905,12.218-24.285h115.1
	c3.473,8.384,7.547,16.514,12.207,24.284l1.06,1.767c3.522,5.874,6.765,12.14,9.636,18.621c1.24,2.8,3.984,4.464,6.861,4.464
	c1.015,0,2.047-0.207,3.034-0.645c3.787-1.678,5.497-6.108,3.819-9.896c-3.12-7.042-6.648-13.858-10.486-20.259l-1.06-1.767
	c-12.422-20.712-20.368-44.176-23.142-68.178h3.954c9.635,0,17.473-7.839,17.473-17.474v-25.23C300.896,9.62,291.276,0,279.451,0
	H160.517c-11.824,0-21.444,9.62-21.444,21.445v25.231c0,9.635,7.838,17.474,17.473,17.474h3.942
	c-2.777,24.019-10.693,47.44-23.131,68.179l-1.058,1.765c-14.92,24.877-23.888,53.332-25.935,82.288
	C110.073,220.514,113.185,224.101,117.317,224.393z M154.073,46.677V21.445c0-3.554,2.891-6.445,6.444-6.445h118.934
	c3.554,0,6.445,2.892,6.445,6.445v25.231c0,1.364-1.109,2.474-2.473,2.474H156.545C155.182,49.15,154.073,48.041,154.073,46.677z
	 M264.382,64.15c1.316,12.409,3.902,24.696,7.682,36.607H167.908c3.778-11.905,6.355-24.188,7.673-36.607
	C175.581,64.15,264.382,64.15,264.382,64.15z"/>
<path d="M283.744,434.326h-0.093c-4.143,0-7.453,3.357-7.453,7.5s3.403,7.5,7.546,7.5s7.5-3.357,7.5-7.5
	S287.886,434.326,283.744,434.326z"/>
<path d="M259.116,449.521l-0.092,0.001c-4.142,0.045-7.418,3.438-7.374,7.579c0.044,4.115,3.438,7.42,7.544,7.42
	c0.027,0,0.055,0,0.082,0c4.142-0.045,7.464-3.438,7.42-7.58c-0.044-4.114-3.394-7.42-7.498-7.42
	C259.17,449.521,259.143,449.521,259.116,449.521z"/>
<path d="M243.114,141.118l-0.093,0.001c-4.142,0.044-7.418,3.437-7.374,7.578c0.043,4.115,3.438,7.421,7.544,7.421
	c0.027,0,0.054,0,0.081,0c4.142-0.044,7.464-3.438,7.421-7.579c-0.044-4.115-3.393-7.421-7.498-7.421
	C243.167,141.118,243.141,141.118,243.114,141.118z"/>
<g>
</g>
<g>
</g>
<g>
</g>
<g>
</g>
<g>
</g>
<g>
</g>
<g>
</g>
<g>
</g>
<g>
</g>
<g>
</g>
<g>
</g>
<g>
</g>
<g>
</g>
<g>
</g>
<g>
</g>
</svg>
