<svg id="Layer_1" enable-background="new 0 0 256 256" height="512" viewBox="0 0 256 256" width="512" xmlns="http://www.w3.org/2000/svg"><g><g><path d="m39.783 209.772 26.867-26.867c5.402-5.402 12.728-8.436 20.367-8.436h51.699c6.403 0 11.593 5.19 11.593 11.593 0 6.403-5.191 11.593-11.593 11.593h-21.239c-3.378 0-6.116 2.738-6.116 6.116 0 3.378 2.738 6.116 6.116 6.116h45.192c3.056 0 5.986-1.214 8.147-3.375l24.819-24.819c4.708-4.708 12.343-4.708 17.051 0 4.708 4.708 4.708 12.342 0 17.051l-38.068 38.068c-2.161 2.161-5.091 3.375-8.147 3.375h-72.647l-11.813 11.813z" fill="#ff9f70"/></g><g><g><path d="m79.049 182.905c5.402-5.402 12.728-8.436 20.367-8.436h-12.399c-7.639 0-14.966 3.035-20.367 8.436l-26.867 26.867 6.2 6.2z" fill="#ffbd8e"/></g></g><g><g><path d="m212.686 181.694c-3.818-3.818-9.56-4.539-14.105-2.165 1.06.554 2.055 1.274 2.946 2.164 4.708 4.708 4.708 12.342 0 17.051l-38.068 38.068c-2.161 2.161-5.091 3.375-8.147 3.375h11.159c3.056 0 5.986-1.214 8.147-3.375l38.068-38.068c4.708-4.708 4.708-12.342 0-17.05z" fill="#e18152"/></g></g><g><path d="m82.011 254c-.512 0-1.023-.195-1.414-.586l-42.228-42.229c-.781-.781-.781-2.047 0-2.828l26.867-26.867c5.818-5.818 13.554-9.022 21.782-9.022h51.699c7.495 0 13.593 6.098 13.593 13.593s-6.098 13.593-13.593 13.593h-21.239c-2.269 0-4.116 1.847-4.116 4.116 0 2.27 1.847 4.116 4.116 4.116h45.191c2.544 0 4.935-.99 6.733-2.789l24.818-24.819c5.48-5.481 14.398-5.482 19.879 0 5.481 5.48 5.481 14.399 0 19.879l-38.068 38.068c-2.554 2.554-5.949 3.96-9.561 3.96h-71.817l-11.228 11.227c-.39.393-.903.588-1.414.588zm-39.4-44.229 39.399 39.4 10.4-10.398c.375-.375.884-.586 1.414-.586h72.647c2.543 0 4.935-.99 6.733-2.789l38.068-38.068c3.921-3.921 3.921-10.302 0-14.223-3.922-3.921-10.301-3.92-14.223 0l-24.818 24.819c-2.554 2.554-5.949 3.96-9.561 3.96h-45.191c-4.475 0-8.116-3.641-8.116-8.116s3.641-8.116 8.116-8.116h21.239c5.29 0 9.593-4.303 9.593-9.593 0-5.289-4.304-9.593-9.593-9.593h-51.701c-7.16 0-13.891 2.788-18.954 7.85z" fill="#690589"/></g><g><path d="m226.373 162.069h-196.746c-7.948 0-14.39-6.443-14.39-14.39 0-7.948 6.443-14.39 14.39-14.39h196.745c7.947 0 14.39 6.443 14.39 14.39.001 7.947-6.442 14.39-14.389 14.39z" fill="#f4efed"/></g><g><path d="m139.593 38.839h-24.655v-22.512c0-6.808 5.519-12.327 12.328-12.327 6.808 0 12.327 5.519 12.327 12.327z" fill="#fcc24c"/></g><g><path d="m139.593 40.839h-24.655c-1.105 0-2-.896-2-2v-22.511c0-7.9 6.427-14.328 14.328-14.328s14.328 6.427 14.328 14.328v22.511c-.001 1.104-.896 2-2.001 2zm-22.655-4h20.655v-20.511c0-5.695-4.633-10.328-10.327-10.328-5.695 0-10.328 4.633-10.328 10.328z" fill="#690589"/></g><g><path d="m226.373 133.289h-14.511c7.947 0 14.39 6.443 14.39 14.39 0 7.947-6.443 14.39-14.39 14.39h14.511c7.947 0 14.39-6.443 14.39-14.39 0-7.948-6.443-14.39-14.39-14.39z" fill="#d6d1cf"/></g><g><path d="m29.627 162.069h14.511c-7.947 0-14.39-6.443-14.39-14.39 0-7.947 6.443-14.39 14.39-14.39h-14.511c-7.947 0-14.39 6.443-14.39 14.39 0 7.947 6.443 14.39 14.39 14.39z" fill="#fff"/></g><g><path d="m128 28.006c-51.554 0-93.347 41.793-93.347 93.346v11.936h186.693v-11.936c0-51.553-41.792-93.346-93.346-93.346z" fill="#f4efed"/></g><g><path d="m128 28.006c-2.187 0-4.348.102-6.497.25 48.52 3.339 86.85 43.729 86.85 93.096v11.936h12.993v-11.936c0-51.553-41.792-93.346-93.346-93.346z" fill="#d6d1cf"/></g><g><path d="m128 28.006c2.186 0 4.348.102 6.496.25-48.52 3.339-86.85 43.729-86.85 93.096v11.936h-12.992v-11.936c0-51.553 41.792-93.346 93.346-93.346z" fill="#fff"/></g><g><path d="m221.347 135.289h-186.694c-1.104 0-2-.896-2-2v-11.936c0-52.574 42.772-95.346 95.347-95.346s95.347 42.772 95.347 95.346v11.936c0 1.104-.896 2-2 2zm-184.694-4h182.693v-9.936c0-50.369-40.978-91.346-91.347-91.346s-91.347 40.978-91.347 91.346v9.936z" fill="#690589"/></g><g><path d="m49.507 100.053c-.16 0-.322-.019-.484-.06-1.072-.267-1.725-1.352-1.458-2.423 1.055-4.243 2.532-8.404 4.391-12.367.468-1 1.658-1.432 2.66-.961 1 .469 1.431 1.66.962 2.66-1.748 3.728-3.138 7.642-4.13 11.633-.228.91-1.044 1.518-1.941 1.518z" fill="#690589"/></g><g><path d="m226.373 164.069h-196.746c-9.038 0-16.39-7.353-16.39-16.39s7.352-16.39 16.39-16.39h196.745c9.038 0 16.39 7.352 16.39 16.39s-7.352 16.39-16.389 16.39zm-196.746-28.78c-6.832 0-12.39 5.558-12.39 12.39s5.558 12.39 12.39 12.39h196.745c6.832 0 12.39-5.558 12.39-12.39s-5.558-12.39-12.39-12.39z" fill="#690589"/></g><g><path d="m128 114.706 25.212-25.212c6.752-6.752 6.752-17.699 0-24.45-6.752-6.752-17.698-6.752-24.45 0l-.762.761-.762-.761c-6.752-6.752-17.698-6.752-24.45 0-6.752 6.752-6.752 17.699 0 24.45z" fill="#ff4397"/></g><g><path d="m128 116.706c-.512 0-1.024-.195-1.414-.586l-25.212-25.212c-7.521-7.521-7.521-19.757 0-27.278 3.643-3.644 8.487-5.65 13.639-5.65 4.851 0 9.428 1.778 12.987 5.026 3.559-3.248 8.136-5.026 12.987-5.026 5.152 0 9.996 2.006 13.639 5.65 7.52 7.521 7.52 19.757 0 27.278l-25.212 25.212c-.39.39-.902.586-1.414.586zm-12.987-54.727c-4.083 0-7.923 1.59-10.811 4.478-5.961 5.961-5.961 15.661 0 21.622l23.798 23.798 23.798-23.797c5.961-5.961 5.961-15.661 0-21.622-2.888-2.888-6.728-4.478-10.811-4.478-4.084 0-7.923 1.59-10.811 4.478l-.762.762c-.78.78-2.047.78-2.827 0l-.762-.761c-2.889-2.889-6.728-4.48-10.812-4.48z" fill="#690589"/></g></g></svg>