<svg height="479pt" viewBox="-95 0 479 479.9995" width="479pt" xmlns="http://www.w3.org/2000/svg"><path d="m168.5 8c-9.222656.023438-17.980469 4.050781-24 11.039062-10.332031-12.128906-27.992188-14.851562-41.5-6.398437-13.503906 8.453125-18.777344 25.527344-12.386719 40.125 6.394531 14.59375 22.515625 22.300781 37.886719 18.105469v73.128906h32v-73.128906c11.996094 3.125 24.71875-.972656 32.636719-10.507813 7.921875-9.539062 9.609375-22.796875 4.328125-34.015625-5.277344-11.21875-16.566406-18.371094-28.964844-18.347656zm0 0" fill="#ffd782"/><path d="m280.5 400s0-144-96-232v-16c0-22.09375-17.910156-40-40-40s-40 17.90625-40 40v16c-96 88-96 232-96 232zm0 0" fill="#d3843d"/><path d="m280.5 400c0-39.765625-60.890625-72-136-72s-136 32.234375-136 72 60.890625 72 136 72 136-32.234375 136-72zm0 0" fill="#ffd782"/><path d="m238.164062 336c-3.683593 0-6.886718-2.511719-7.769531-6.089844-9.503906-38.628906-29.894531-92.964844-72.925781-132.421875-3.257812-2.988281-3.480469-8.050781-.492188-11.308593 2.984376-3.257813 8.046876-3.480469 11.308594-.492188 45.992188 42.160156 67.613282 99.625 77.65625 140.398438.585938 2.390624.042969 4.917968-1.476562 6.851562-1.515625 1.933594-3.839844 3.0625-6.300782 3.0625zm0 0" fill="#ffd782"/><path d="m176.5 48c-4.417969 0-8-3.582031-8-8-4.417969 0-8-3.582031-8-8s3.582031-8 8-8c8.835938 0 16 7.164062 16 16 0 4.417969-3.582031 8-8 8zm0 0" fill="#d3843d"/><path d="m208.5 400c0-13.253906-28.652344-24-64-24s-64 10.746094-64 24 28.652344 24 64 24 64-10.746094 64-24zm0 0" fill="#d3843d"/><g fill="#ffd782"><path d="m48.5 296h16v16h-16zm0 0"/><path d="m64.5 280h16v16h-16zm0 0"/><path d="m64.5 248h16v16h-16zm0 0"/></g><path d="m192.5 164.511719v-12.511719c-.023438-17.125-9.167969-32.941406-24-41.503906v-30.496094c17.457031.085938 32.957031-11.160156 38.289062-27.785156 5.332032-16.625-.734374-34.789063-14.988281-44.871094-14.253906-10.082031-33.398437-9.753906-47.300781.808594-13.894531-10.480469-32.972656-10.761719-47.171875-.695313-14.195313 10.070313-20.238281 28.167969-14.945313 44.746094 5.296876 16.578125 20.714844 27.820313 38.117188 27.796875v30.496094c-14.832031 8.5625-23.976562 24.378906-24 41.503906v12.511719c-94.894531 89.480469-96 229.519531-96 235.488281 0 44.855469 63.253906 80 144 80 80.742188 0 144-35.144531 144-80 0-5.96875-1.105469-146.007812-96-235.488281zm-59.105469-100c-1.953125-1.515625-4.503906-2.035157-6.894531-1.410157-9.007812 2.390626-18.578125-.664062-24.542969-7.824218-5.960937-7.15625-7.230469-17.125-3.253906-25.550782 3.976563-8.425781 12.480469-13.78125 21.796875-13.726562 6.917969.003906 13.488281 3.039062 17.976562 8.304688 1.5625 1.660156 3.742188 2.601562 6.023438 2.601562s4.460938-.941406 6.023438-2.601562c4.488281-5.265626 11.058593-8.300782 17.976562-8.304688 9.398438-.15625 18.019531 5.1875 22.0625 13.671875s2.761719 18.546875-3.277344 25.75c-6.039062 7.199219-15.726562 10.210937-24.785156 7.707031-2.394531-.621094-4.941406-.097656-6.894531 1.417969-1.957031 1.511719-3.101563 3.84375-3.105469 6.316406v33.855469c-5.289062-.960938-10.710938-.960938-16 0v-33.855469c0-2.476562-1.144531-4.8125-3.105469-6.328125zm-23.488281 109.359375c1.648438-1.507813 2.585938-3.636719 2.59375-5.871094v-16c0-17.671875 14.328125-32 32-32s32 14.328125 32 32v16c0 2.242188.941406 4.378906 2.589844 5.894531 61.296875 56.183594 82.402344 136.945313 89.601562 185.199219-24.792968-23.542969-70.589844-39.09375-124.191406-39.09375s-99.398438 15.550781-124.191406 39.09375c7.238281-48.253906 28.304687-129.015625 89.597656-185.199219zm34.59375 290.128906c-69.382812 0-128-29.304688-128-64s58.617188-64 128-64 128 29.304688 128 64-58.617188 64-128 64zm0 0"/><path d="m230.394531 329.910156c1.058594 4.292969 5.394531 6.917969 9.683594 5.863282 4.292969-1.058594 6.917969-5.394532 5.863281-9.6875-10.042968-40.796876-31.664062-98.238282-77.65625-140.398438-3.261718-2.988281-8.324218-2.765625-11.308594.492188-2.988281 3.257812-2.765624 8.320312.492188 11.308593 43.03125 39.457031 63.421875 93.792969 72.925781 132.421875zm0 0"/><path d="m168.5 40c0 4.417969 3.582031 8 8 8s8-3.582031 8-8c0-8.835938-7.164062-16-16-16-4.417969 0-8 3.582031-8 8s3.582031 8 8 8zm0 0"/><path d="m144.5 368c-35.785156 0-72 10.992188-72 32s36.214844 32 72 32 72-10.992188 72-32-36.214844-32-72-32zm0 48c-36.375 0-56-11.359375-56-16s19.625-16 56-16 56 11.359375 56 16-19.625 16-56 16zm0 0"/><path d="m48.5 296h16v16h-16zm0 0"/><path d="m64.5 280h16v16h-16zm0 0"/><path d="m64.5 248h16v16h-16zm0 0"/></svg>