<svg id="Layer_1" enable-background="new 0 0 512 512" height="512" viewBox="0 0 512 512" width="512" xmlns="http://www.w3.org/2000/svg"><g><path d="m119.851 470.706c28.024 18.767 60.135 31.897 94.717 37.788h82.864c34.583-5.891 66.694-19.021 94.718-37.788l83.97-96.035c15.928-32.5 24.882-69.038 24.882-107.673 0-135.311-109.691-245.002-245.002-245.002s-245.002 109.691-245.002 245.002c0 38.634 8.955 75.172 24.882 107.672z" fill="#56e28f"/><path d="m60.447 414.599h391.105c9.902-13.098 18.52-27.219 25.663-42.182v-190.23c0-16.905-13.753-30.659-30.658-30.659h-381.113c-16.905 0-30.659 13.753-30.659 30.659v190.23c7.143 14.962 15.761 29.084 25.662 42.182z" fill="#2a428c"/><path d="m185.352 412.803c-7.047-7.047 0-14.125 0-14.125l29.163-191.114c-16.002-16.002-1.846-31.704-1.846-31.704l-5.892-24.332h-141.333c-16.905 0-30.659 13.753-30.659 30.659v190.23c7.143 14.963 15.761 29.084 25.663 42.182h123.238c1.014-1.165 1.666-1.796 1.666-1.796z" fill="#1c2e7a"/><path d="m446.557 171.282h-381.113c-5.912 0-10.905 4.994-10.905 10.905v224.243c1.917 2.764 3.884 5.489 5.909 8.169h391.105c2.026-2.679 3.992-5.405 5.909-8.168v-224.244c0-5.912-4.994-10.905-10.905-10.905z" fill="#816ae2"/><path d="m185.352 412.803c-7.047-7.047 0-14.125 0-14.125l29.163-191.114c-16.002-16.002-1.846-31.704-1.846-31.704l-1.109-4.578h-146.116c-5.912 0-10.905 4.994-10.905 10.905v224.243c1.917 2.764 3.884 5.489 5.909 8.169h123.239c1.013-1.165 1.665-1.796 1.665-1.796z" fill="#7255ce"/><path d="m256 512c16.047 0 31.727-1.56 46.913-4.506-.003-.026-.008-.051-.012-.077l-4.979-37.152h-83.845l-4.979 37.152c-.003.026-.008.051-.012.076 15.187 2.947 30.867 4.507 46.914 4.507z" fill="#d3dcfb"/><path d="m244.301 509.536c.906-10.412 9.622-18.403 20.073-18.403h36.346l-2.797-20.867h-83.845l-4.979 37.152c-.003.026-.008.051-.012.076 11.414 2.214 23.107 3.644 35.025 4.219z" fill="#bec8f7"/><path d="m418.824 111.584c-10.342 0-18.879-7.628-20.353-17.56-1.474 9.932-10.012 17.56-20.353 17.56-10.342 0-18.879-7.628-20.353-17.56-1.474 9.932-10.012 17.56-20.353 17.56-10.342 0-18.879-7.628-20.353-17.56-1.474 9.932-10.011 17.56-20.353 17.56-10.341 0-18.879-7.628-20.353-17.56-1.474 9.932-10.012 17.56-20.353 17.56-10.341 0-18.878-7.628-20.353-17.56-1.474 9.932-10.011 17.56-20.353 17.56-10.342 0-18.879-7.628-20.353-17.56-1.474 9.932-10.012 17.56-20.353 17.56-10.342 0-18.879-7.628-20.353-17.56-1.474 9.932-10.011 17.56-20.353 17.56s-18.879-7.628-20.353-17.56c-1.474 9.932-10.011 17.56-20.353 17.56-4.523 0-8.692-1.475-12.09-3.946v306.96h348.505v-306.076c-3.136 1.93-6.815 3.062-10.767 3.062z" fill="#ffdd40"/><path d="m185.352 412.803c-7.047-7.047 0-14.125 0-14.125l29.163-191.114c-16.002-16.002-1.846-31.704-1.846-31.704l-8.121-33.535c-26.952-6.092-18.923-31.95-18.923-31.95-.783-.198-1.5-.475-2.169-.803-2.685 1.286-5.69 2.012-8.868 2.012-10.342 0-18.879-7.628-20.353-17.56-1.474 9.932-10.011 17.56-20.353 17.56s-18.879-7.628-20.353-17.56c-1.474 9.932-10.011 17.56-20.353 17.56-4.523 0-8.692-1.475-12.09-3.946v306.96h102.6c1.014-1.164 1.666-1.795 1.666-1.795z" fill="#ffb332"/><path d="m415.793 0h-320.909c-7.621 0-13.799 6.178-13.799 13.799v29.315h348.505v-29.315c.001-7.621-6.177-13.799-13.797-13.799z" fill="#3c58a0"/><path d="m94.884 0c-7.621 0-13.799 6.178-13.799 13.799v29.315h94.206v-.954l-8.503-12.1s6.579-10.428 0-17.006c-6.579-6.579 0-13.054 0-13.054h-71.904z" fill="#1c2e7a"/><path d="m125.342 21.557c0 4.696-3.807 8.503-8.503 8.503s-8.503-3.807-8.503-8.503 3.807-8.503 8.503-8.503 8.503 3.807 8.503 8.503z" fill="#ff4155"/><ellipse cx="141.814" cy="21.557" fill="#ffdd40" rx="8.503" ry="8.503" transform="matrix(.925 -.381 .381 .925 2.472 55.613)"/><path d="m175.292 21.557c0 4.696-3.807 8.503-8.503 8.503s-8.503-3.807-8.503-8.503 3.807-8.503 8.503-8.503 8.503 3.807 8.503 8.503z" fill="#56e28f"/><g><path d="m353.14 28.231h-153.135c-3.687 0-6.675-2.988-6.675-6.675s2.988-6.675 6.675-6.675h153.135c3.687 0 6.675 2.988 6.675 6.675s-2.988 6.675-6.675 6.675z" fill="#1c2e7a"/></g><g><path d="m396.899 28.231h-15.479c-3.687 0-6.675-2.988-6.675-6.675s2.988-6.675 6.675-6.675h15.479c3.687 0 6.675 2.988 6.675 6.675s-2.988 6.675-6.675 6.675z" fill="#1c2e7a"/></g><path d="m113.778 81.891v-39.731h-34.559c-3.67 0-6.645 2.976-6.645 6.645v33.086z" fill="#7255ce"/><path d="m72.574 79.984v12.997c0 11.379 9.224 20.603 20.602 20.603s20.602-9.224 20.602-20.603v-12.997z" fill="#4fabf7"/><path d="m113.28 42.16h41.205v39.731h-41.205z" fill="#4fabf7"/><path d="m113.28 79.984v12.997c0 11.379 9.224 20.603 20.602 20.603s20.602-9.224 20.602-20.603v-12.997z" fill="#7255ce"/><path d="m153.986 42.16h41.205v39.731h-41.205z" fill="#816ae2"/><path d="m153.986 42.16h21.306v39.731h-21.306z" fill="#7255ce"/><path d="m153.986 79.984v12.997c0 11.379 9.224 20.603 20.602 20.603 11.378 0 20.602-9.224 20.602-20.603v-12.997z" fill="#73c3f9"/><path d="m174.588 113.584c4.058 0 7.83-1.189 11.019-3.215-9.857-2.513-10.315-16.345-10.315-16.345v-14.04h-21.306v12.997c0 11.379 9.224 20.603 20.602 20.603z" fill="#4fabf7"/><path d="m194.692 42.16h41.205v39.731h-41.205z" fill="#73c3f9"/><path d="m194.692 79.984v12.997c0 11.379 9.224 20.603 20.602 20.603 11.378 0 20.602-9.224 20.602-20.603v-12.997z" fill="#816ae2"/><path d="m235.398 42.16h41.205v39.731h-41.205z" fill="#816ae2"/><path d="m235.398 79.984v12.997c0 11.379 9.224 20.603 20.602 20.603 11.378 0 20.602-9.224 20.602-20.603v-12.997z" fill="#73c3f9"/><path d="m276.104 42.16h41.205v39.731h-41.205z" fill="#73c3f9"/><path d="m276.104 79.984v12.997c0 11.379 9.224 20.603 20.602 20.603 11.378 0 20.602-9.224 20.602-20.603v-12.997z" fill="#816ae2"/><path d="m316.81 42.16h41.205v39.731h-41.205z" fill="#816ae2"/><path d="m316.81 79.984v12.997c0 11.379 9.224 20.603 20.602 20.603 11.378 0 20.602-9.224 20.602-20.603v-12.997z" fill="#73c3f9"/><path d="m357.516 42.16h41.205v39.731h-41.205z" fill="#73c3f9"/><path d="m357.516 79.984v12.997c0 11.379 9.224 20.603 20.602 20.603 11.378 0 20.602-9.224 20.602-20.603v-12.997z" fill="#816ae2"/><path d="m439.427 81.891v-33.085c0-3.67-2.975-6.645-6.645-6.645h-34.559v39.731h41.204z" fill="#816ae2"/><path d="m398.222 79.984v12.997c0 11.379 9.224 20.603 20.602 20.603 11.378 0 20.602-9.224 20.602-20.603v-12.997z" fill="#73c3f9"/><path d="m59.1 412.803c17.255 23.263 38.536 43.354 62.811 59.259h268.18c24.274-15.905 45.556-35.996 62.81-59.259z" fill="#e9efff"/><path d="m185.352 412.803h-126.252c17.255 23.263 38.536 43.354 62.811 59.259h63.442c-30.168-30.168-.001-59.259-.001-59.259z" fill="#d3dcfb"/><ellipse cx="256" cy="442.432" fill="#bec8f7" rx="13.217" ry="13.217" transform="matrix(.229 -.974 .974 .229 -233.217 590.585)"/><path d="m383.769 210.75-10.073-61.929c-.876-5.388-5.101-9.613-10.489-10.489l-61.929-10.072c-4.028-.655-8.126.667-11.011 3.553l-176.916 176.915c-4.956 4.956-4.956 12.992 0 17.948l72.002 72.002c4.956 4.956 12.992 4.956 17.948 0l176.916-176.916c2.885-2.886 4.207-6.983 3.552-11.012zm-57.098-25.393c-6.026-6.026-6.027-15.797 0-21.823 6.026-6.026 15.797-6.026 21.823 0s6.026 15.797 0 21.823c-6.026 6.027-15.796 6.027-21.823 0z" fill="#ff4155"/><path d="m203.6 307.817 23.6-22.988c2.193-11.594 13.634-7.245 13.634-7.245s34-15.667 30-26.167 7.595-11.262 7.595-11.262l7.695-10.747c0-18.442 18.773-17.55 18.773-17.55l9.401-9.401c-3.59-17.97 12.374-17.099 12.374-17.099-6.026-6.026-6.027-15.797 0-21.823 3.392-3.391 7.969-4.874 12.397-4.448-8.081-9.851.321-21.168 2.895-24.209l-40.685-6.617c-4.028-.655-8.126.667-11.011 3.553l-176.917 176.914c-4.956 4.956-4.956 12.992 0 17.948l35.249 35.249c-2.54-16.949 16.651-14.591 16.651-14.591l20.102 7.167 13.459-11.75s1.355-22.333-.467-29.066c-1.822-6.735 5.255-5.868 5.255-5.868z" fill="#e80054"/><g><g><path d="m335.6 349.871-13.792-13.792c-2.929-2.929-2.929-7.678 0-10.606s7.678-2.929 10.607.001l13.792 13.792c2.929 2.929 2.929 7.678 0 10.606s-7.678 2.929-10.607-.001z" fill="#e9efff"/></g><g><path d="m360.65 313.004-18.957-4.591c-4.026-.975-6.499-5.028-5.524-9.055.974-4.025 5.026-6.498 9.054-5.523l18.956 4.591c4.026.975 6.499 5.028 5.524 9.055-.967 3.997-5 6.504-9.053 5.523z" fill="#e9efff"/></g><g><path d="m294.762 367.845-4.591-18.956c-.975-4.026 1.498-8.08 5.524-9.055 4.026-.976 8.08 1.498 9.054 5.523l4.591 18.956c.975 4.026-1.498 8.08-5.524 9.055-4.043.979-8.084-1.514-9.054-5.523z" fill="#e9efff"/></g></g><g><g><path d="m175.949 190.22-13.792-13.791c-2.929-2.93-2.929-7.678 0-10.606 2.929-2.93 7.678-2.929 10.606-.001l13.792 13.791c2.929 2.93 2.929 7.678 0 10.607-2.928 2.928-7.677 2.929-10.606 0z" fill="#e9efff"/></g><g><path d="m203.615 170.336-4.591-18.957c-.975-4.026 1.498-8.08 5.524-9.055s8.08 1.498 9.054 5.523l4.591 18.957c.975 4.026-1.498 8.08-5.524 9.055-4.042.98-8.083-1.513-9.054-5.523z" fill="#e9efff"/></g><g><path d="m163.141 221.858-18.957-4.591c-4.026-.975-6.499-5.028-5.524-9.055.975-4.024 5.029-6.497 9.055-5.523l18.956 4.591c4.026.975 6.499 5.028 5.524 9.055-.968 3.996-4.999 6.504-9.054 5.523z" fill="#e9efff"/></g></g><g><g><path d="m329.901 227.46c-2.596 2.596-6.805 2.596-9.401 0l-.841-.842c-2.596-2.596-2.596-6.805 0-9.401s6.805-2.596 9.401 0l.841.842c2.596 2.596 2.596 6.805 0 9.401z" fill="#e9efff"/></g><g><path d="m314.298 211.857c-2.596 2.596-6.805 2.596-9.401 0l-20.329-20.329c-2.596-2.596-2.596-6.805 0-9.401s6.805-2.596 9.401 0l20.329 20.329c2.595 2.596 2.596 6.805 0 9.401z" fill="#e9efff"/></g></g><g fill="#e9efff"><path d="m237.54 236.251c-.058-.026-.117-.052-.176-.077-2.93-1.224-6.274-.563-8.519 1.682-.001.001-.002.002-.003.003-2.246 2.248-2.904 5.594-1.676 8.525.021.051.044.101.066.152l21.93 48.911c1.502 3.35 5.435 4.848 8.785 3.346 3.346-1.499 4.848-5.435 3.346-8.785l-3.587-8.001 15.186-15.186 7.962 3.599c3.361 1.52 7.29.012 8.795-3.319 1.512-3.345.026-7.283-3.32-8.795zm14.345 32.774-6.58-14.675 14.638 6.617z"/><path d="m305.662 232.826c-.009.009-.018.018-.027.027-2.386 2.413-5.383 5.434-7.824 7.883l-31.225-31.225c-2.596-2.596-6.804-2.596-9.401 0-2.596 2.596-2.596 6.805 0 9.401l35.896 35.896c2.289 2.289 5.894 2.596 8.537.728 1.185-.837 11.429-11.27 13.47-13.334 2.581-2.61 2.558-6.82-.053-9.401-2.601-2.574-6.789-2.559-9.373.025z"/><path d="m210.507 275.324c2.596-2.596 2.596-6.805 0-9.401s-6.805-2.596-9.401 0l-14.999 15c-2.596 2.596-2.596 6.805 0 9.401l35.598 35.598c2.596 2.596 6.805 2.596 9.401 0l15-14.999c2.596-2.596 2.596-6.805 0-9.401s-6.804-2.596-9.401 0l-10.299 10.299-8.399-8.399 9.193-9.193c2.596-2.596 2.596-6.805 0-9.401s-6.805-2.596-9.401 0l-9.193 9.193-8.398-8.398z"/><path d="m157.433 310.331-9.874 9.874c-2.603 2.603-2.59 6.821.009 9.409 0 0 .015.015.027.027l.001.001 34.261 34.261c3.374 3.374 7.564 2.969 10.037.496.006-.006.012-.012.018-.018.297-.3 7.313-7.37 10.079-10.234 10.48-10.853 8.947-27.87-3.646-40.464-13.238-13.237-29.679-14.585-40.912-3.352zm34.995 34.58c-1.209 1.252-3.311 3.389-5.274 5.378-13.86-13.774-8.701-8.667-25.484-25.393l5.165-5.165c8.702-8.702 19.123.366 22.11 3.353 8.631 8.632 7.968 17.183 3.483 21.827z"/><path d="m397.577 181.887h-51.067c-4.11 0-7.441-3.332-7.441-7.441 0-4.11 3.332-7.441 7.441-7.441h51.067c4.11 0 7.441 3.331 7.441 7.441 0 4.109-3.332 7.441-7.441 7.441z"/></g></g></svg>