<svg id="Filled" height="512" viewBox="0 0 512 512" width="512" xmlns="http://www.w3.org/2000/svg"><path d="m192 24v68.71l-30.43-52.71-41.57 24 72 124.71v107.29h48v-272z" fill="#4c8f56"/><path d="m384 72v288a48 48 0 0 1 -96 0v-288a48 48 0 0 1 96 0z" fill="#fcb442"/><path d="m352 103.99a15.991 15.991 0 0 1 -8 13.87l-56 32.33v-36.95l40-23.09a16 16 0 0 1 24 13.84z" fill="#fde575"/><path d="m288 121.008v-17.008h-48v17.008a32.014 32.014 0 0 0 -24 30.992v48h96v-48a32.014 32.014 0 0 0 -24-30.992z" fill="#a4d4f4"/><circle cx="184" cy="176" fill="#ce3536" r="56"/><path d="m176 184h240v256h-240z" fill="#e2d2c2"/><path d="m96 184h240v256h-240z" fill="#fae8d8"/><path d="m432 488h-136v-48h120z" fill="#b2a498"/><path d="m336 440h-240l-16 48h240z" fill="#d8c8b9"/><path d="m288 216v80a16 16 0 0 1 -16 16h-112a16 16 0 0 1 -16-16v-80h32v64h80v-64z" fill="#d8c8b9"/><path d="m240 88h48v32h-48z" fill="#2b70a8"/><path d="m447.59 485.47-15.59-46.77v-254.7a8 8 0 0 0 -8-8h-24v-104a56 56 0 0 0 -112 0v8h-32v-56a8 8 0 0 0 -8-8h-48a8 8 0 0 0 -8 8v38.852l-15.5-26.852a8 8 0 0 0 -10.929-2.929l-41.57 24a8 8 0 0 0 -2.929 10.929l32.728 56.684a63.947 63.947 0 0 0 -25.8 51.316h-24a8 8 0 0 0 -8 8v254.7l-15.59 46.77a8 8 0 0 0 7.59 10.53h352a8 8 0 0 0 7.59-10.53zm-31.59-53.47h-64v-240h64zm-112-360a40 40 0 0 1 80 0v104h-56v-24a39.865 39.865 0 0 0 -1.345-10.276l29.345-16.934a23.992 23.992 0 0 0 8.783-32.785 23.988 23.988 0 0 0 -32.783-8.783l-28 16.163zm-48 56h32a24.028 24.028 0 0 1 24 24v24h-56a63.718 63.718 0 0 0 -15.809-42.045 24.014 24.014 0 0 1 15.809-5.955zm50.375-11.511 33.625-19.412a8 8 0 0 1 8 13.855l-28.508 16.452a40.253 40.253 0 0 0 -13.117-10.895zm-18.375-4.489h-32v-16h32zm-149.071-45.071 27.713-16 26.429 45.781a8 8 0 0 0 14.929-4v-60.71h32v83.353a40.029 40.029 0 0 0 -11.8 7.907 63.832 63.832 0 0 0 -60.48-6.46zm53.071 61.071a48.053 48.053 0 0 1 48 48h-96a48.053 48.053 0 0 1 48-48zm-80 64h224v240h-224zm210.234 288h-223.134l10.667-32h223.133zm16.866 0 10.667-32h68.467l10.666 32z"/><path d="m296 208h-32a8 8 0 0 0 -8 8v56h-64v-56a8 8 0 0 0 -8-8h-32a8 8 0 0 0 -8 8v80a24.028 24.028 0 0 0 24 24h112a24.028 24.028 0 0 0 24-24v-80a8 8 0 0 0 -8-8zm-8 88a8.009 8.009 0 0 1 -8 8h-112a8.009 8.009 0 0 1 -8-8v-72h16v56a8 8 0 0 0 8 8h80a8 8 0 0 0 8-8v-56h16z"/></svg>